<?xml version="1.0" standalone="no"?>
<!DOCTYPE svg PUBLIC "-//W3C//DTD SVG 20010904//EN"
 "http://www.w3.org/TR/2001/REC-SVG-20010904/DTD/svg10.dtd">
<svg version="1.0" xmlns="http://www.w3.org/2000/svg"
 width="94.000000pt" height="94.000000pt" viewBox="0 0 94.000000 94.000000"
 preserveAspectRatio="xMidYMid meet">
<metadata>
Created by potrace 1.11, written by Peter Selinger 2001-2013
</metadata>
<g transform="translate(0.000000,94.000000) scale(0.100000,-0.100000)"
fill="#000000" stroke="none">
<path d="M272 826 c-101 -61 -187 -118 -192 -126 -5 -8 -10 -115 -10 -237 l0
-223 47 -35 c27 -19 54 -35 61 -35 6 0 12 -4 12 -10 0 -5 4 -10 8 -10 9 0 167
-91 187 -107 20 -16 61 -34 80 -35 22 -1 351 193 376 222 14 16 16 50 15 243
-1 199 -3 225 -18 241 -10 10 -18 14 -18 9 0 -4 -4 -3 -8 3 -4 6 -67 47 -140
90 -183 109 -185 110 -202 115 -8 3 -97 -45 -198 -105z m283 -22 c22 -14 48
-27 58 -31 9 -3 17 -8 17 -12 0 -3 15 -13 33 -21 17 -7 37 -18 42 -22 6 -5 26
-19 45 -31 34 -22 35 -24 37 -97 2 -41 4 -85 6 -97 2 -13 1 -23 -2 -23 -3 0
-6 -44 -6 -97 l0 -98 -120 -73 c-66 -39 -139 -83 -162 -96 l-41 -24 -159 95
-158 94 -5 125 c-3 70 -2 131 2 137 4 6 4 15 1 21 -4 5 -6 32 -6 59 1 52 8 60
73 97 19 11 53 31 75 44 22 14 71 43 110 65 77 44 66 45 160 -15z"/>
<path d="M418 801 c-10 -10 -18 -22 -18 -27 0 -19 58 -76 76 -74 30 3 48 1 41
-6 -3 -4 -2 -14 3 -24 7 -13 2 -23 -20 -44 -38 -33 -42 -98 -10 -126 18 -16
19 -21 8 -45 -10 -23 -16 -26 -44 -20 -26 4 -38 0 -64 -23 -26 -24 -31 -35
-27 -60 4 -27 1 -32 -24 -41 -27 -9 -30 -7 -44 20 -9 16 -19 29 -23 29 -4 1
-24 3 -44 6 -33 5 -38 3 -53 -25 -8 -17 -16 -34 -16 -37 -1 -6 128 -94 138
-94 3 0 18 -10 35 -21 37 -27 57 -8 26 23 -15 15 -17 22 -7 34 6 8 22 12 35
10 33 -6 77 30 71 60 -3 17 1 23 21 27 18 3 26 0 29 -14 8 -29 63 -41 88 -18
28 25 55 9 49 -30 -3 -16 0 -32 6 -36 19 -12 36 13 32 47 -5 41 -55 82 -83 67
-26 -14 -37 -11 -50 12 -9 17 -7 25 8 42 11 12 18 28 17 35 -1 6 -2 23 -3 37
-1 16 -11 29 -30 39 -43 23 -29 82 16 70 15 -4 26 3 42 30 19 30 21 41 12 71
-5 19 -6 35 -3 35 4 0 -28 20 -70 45 -85 50 -95 52 -120 26z"/>
<path d="M243 692 l-72 -47 -1 -97 0 -96 35 -12 c47 -16 85 -19 85 -9 0 5 9 9
20 9 10 0 35 16 54 36 61 62 61 167 0 229 -18 19 -37 35 -41 35 -5 -1 -40 -22
-80 -48z"/>
<path d="M699 641 c-73 -39 -96 -145 -48 -216 22 -32 84 -64 97 -50 4 4 7 67
8 140 0 149 -3 155 -57 126z"/>
<path d="M500 247 c0 -6 -3 -7 -6 -4 -13 13 -61 -33 -71 -68 -10 -33 -9 -37
14 -52 16 -11 27 -13 31 -6 4 5 12 12 17 14 35 14 125 75 122 84 -8 24 -107
54 -107 32z"/>
</g>
</svg>
